<?xml version="1.0" standalone="no"?>
<!DOCTYPE svg PUBLIC "-//W3C//DTD SVG 20010904//EN"
 "http://www.w3.org/TR/2001/REC-SVG-20010904/DTD/svg10.dtd">
<svg version="1.0" xmlns="http://www.w3.org/2000/svg"
 width="512.000000pt" height="512.000000pt" viewBox="0 0 512.000000 512.000000"
 preserveAspectRatio="xMidYMid meet">
<metadata>
Created by potrace 1.11, written by Peter Selinger 2001-2013
</metadata>
<g transform="translate(0.000000,512.000000) scale(0.100000,-0.100000)"
fill="#000000" stroke="none">
<path d="M30 4577 l0 -542 2530 0 2530 0 0 542 0 543 -2530 0 -2530 0 0 -543z"/>
<path d="M29 3088 c0 -55 0 -1008 0 -1028 1 -13 117 -15 994 -15 l992 0 2
-1010 c1 -556 2 -1016 2 -1022 1 -10 117 -13 544 -13 l542 0 -1 1023 -1 1022
996 0 996 0 -2 525 c-1 289 -2 533 -2 543 -1 16 -128 17 -2531 17 l-2530 0 -1
-42z"/>
</g>
</svg>
